<svg id="Capa_1" data-name="Capa 1" xmlns="http://www.w3.org/2000/svg" viewBox="0 0 35.15 41.44"><path d="M28.11,5.79V5.41h.73a1.79,1.79,0,0,0,1.87-1.69V1.8A1.78,1.78,0,0,0,29,0H6.2A1.79,1.79,0,0,0,4.32,1.68V3.61a1.78,1.78,0,0,0,1.76,1.8H7.2v.38C7.2,9.29,0,7.43,0,13.89v20c0,4.17,3.88,7.55,8.66,7.55H26.46c4.78,0,8.66-3.38,8.66-7.55v-20C35.11,7.43,28.11,9.29,28.11,5.79Z" transform="translate(0.03 0)" style="fill:#dae7ef"/><path d="M16.12,15.17A30.49,30.49,0,0,0,10.28,14C4.8,13.46,0,17.18,0,22V33.87C0,38,3.88,41.42,8.66,41.42h17.8c4.78,0,8.66-3.38,8.66-7.55v-9c0-4.54-4.33-8.15-9.54-8A22.26,22.26,0,0,1,17,15.48C16.72,15.37,16.46,15.26,16.12,15.17Z" transform="translate(0.03 0)" style="fill:#b0ff5f"/><ellipse cx="9.63" cy="21.48" rx="3.52" ry="3.07" style="fill:#00aa09"/><ellipse cx="27.22" cy="23.78" rx="2.64" ry="2.3" style="fill:#fffc3f"/><ellipse cx="17.55" cy="28.38" rx="1.76" ry="1.53" style="fill:#fffc3f"/><ellipse cx="9.63" cy="35.28" rx="2.64" ry="2.3" style="fill:#fffc3f"/><ellipse cx="27.22" cy="34.51" rx="1.76" ry="1.53" style="fill:#00aa09"/><path d="M19.51,22.73a.88.88,0,0,1-.39-.08l-2.23-1a.72.72,0,0,1-.42-.93l0-.07a1,1,0,0,1,1.18-.34l2.22,1a.73.73,0,0,1,.43.94l0,.06A.9.9,0,0,1,19.51,22.73Z" transform="translate(0.03 0)" style="fill:#c3ff1f"/><path d="M25.46,30.68a.92.92,0,0,1-.62-.22l-1.76-1.54a.7.7,0,0,1-.09-1l.09-.09a1,1,0,0,1,1.25,0l1.73,1.53a.71.71,0,0,1,.09,1l-.09.09A1,1,0,0,1,25.46,30.68Z" transform="translate(0.03 0)" style="fill:#c3ff1f"/><path d="M17.22,37.17a.87.87,0,0,1-.84-.52.75.75,0,0,1,.44-1l.12,0L19.3,35a.9.9,0,0,1,1.11.48.74.74,0,0,1-.41,1l-.14,0-2.4.73Z" transform="translate(0.03 0)" style="fill:#c3ff1f"/><path d="M6.08,29.92a1,1,0,0,1-.62-.23.7.7,0,0,1-.09-1l.09-.09,1.76-1.54a1,1,0,0,1,1.24,0,.7.7,0,0,1,.12,1l-.12.12L6.7,29.69A.93.93,0,0,1,6.08,29.92Z" transform="translate(0.03 0)" style="fill:#c3ff1f"/><path d="M30.71,15.34a.85.85,0,0,1-.86-.61c-1-4.22-7.19-5.53-7.26-5.54a.78.78,0,0,1-.66-.87.43.43,0,0,0,0-.05.88.88,0,0,1,1-.58c.31.06,7.39,1.56,8.58,6.73a.78.78,0,0,1-.63.9h-.23Z" transform="translate(0.03 0)" style="fill:#fff"/><path d="M16.46,0H28.84a1.79,1.79,0,0,1,1.87,1.69V3.61A1.78,1.78,0,0,1,29,5.41H6.2A1.79,1.79,0,0,1,4.32,3.73V1.8A1.78,1.78,0,0,1,6.08,0H18.59" transform="translate(0.03 0)" style="fill:#e6e6e6"/><path d="M25.46,5.41H27.2V0H25.46V5.41Z" transform="translate(0.03 0)" style="fill:#d2d5d7"/><path d="M21.92,5.41h1.75V0H21.92Z" transform="translate(0.03 0)" style="fill:#d2d5d7"/><path d="M18.4,5.41h1.75V0H18.4Z" transform="translate(0.03 0)" style="fill:#d2d5d7"/><path d="M14.89,5.41h1.74V0H14.88V5.37A.1.1,0,0,1,14.89,5.41Z" transform="translate(0.03 0)" style="fill:#d2d5d7"/><path d="M11.37,5.41h1.74V0H11.36V5.37A.1.1,0,0,1,11.37,5.41Z" transform="translate(0.03 0)" style="fill:#d2d5d7"/><path d="M7.85,5.41H9.59V0H7.84V5.37A.1.1,0,0,1,7.85,5.41Z" transform="translate(0.03 0)" style="fill:#d2d5d7"/></svg>