<?xml version="1.0" encoding="utf-8"?>
<!-- Generator: Adobe Illustrator 24.1.2, SVG Export Plug-In . SVG Version: 6.00 Build 0)  -->
<svg version="1.1" id="Capa_1" xmlns="http://www.w3.org/2000/svg" xmlns:xlink="http://www.w3.org/1999/xlink" x="0px" y="0px"
	 viewBox="0 0 51 40" style="enable-background:new 0 0 51 40;" xml:space="preserve">
<style type="text/css">
	.st0{fill:#FBD490;}
	.st1{fill:#D8B173;}
	.st2{fill:#231F20;}
	.st3{fill:#A46F3E;}
	.st4{fill:#F9D70B;}
</style>
<path class="st0" d="M0.6,28.4C0.2,29,0,29.7,0,30.4C0,35.5,11.4,40,25.5,40S51,35.5,51,30.4c0-0.7-0.2-1.3-0.6-2H0.6z"/>
<path class="st1" d="M0.6,24.5c-0.4,0.6-0.6,1.3-0.6,2c0,5.1,11.4,9.7,25.5,9.7S51,31.6,51,26.5c0-0.7-0.2-1.3-0.6-2H0.6z"/>
<path class="st2" d="M31.5,30.5c-2.2,0-4-1.8-4-4c0-0.6,0.4-1,1-1c0.6,0,1,0.4,1,1c0,1.1,0.9,2,2,2c1.1,0,2-0.9,2-2c0-0.6,0.4-1,1-1
	s1,0.4,1,1C35.5,28.8,33.7,30.5,31.5,30.5z"/>
<path class="st0" d="M0.6,19.9c-0.4,0.6-0.6,1.3-0.6,2c0,5.1,11.4,9.7,25.5,9.7S51,27,51,21.9c0-0.7-0.2-1.3-0.6-2H0.6z"/>
<path class="st0" d="M0.6,19.9c-0.4,0.6-0.6,1.3-0.6,2c0,5.1,11.4,9.7,25.5,9.7S51,27,51,21.9c0-0.7-0.2-1.3-0.6-2H0.6z"/>
<path class="st1" d="M0.6,16C0.2,16.6,0,17.3,0,18c0,5.1,11.4,9.7,25.5,9.7S51,23.1,51,18c0-0.7-0.2-1.3-0.6-2H0.6z"/>
<path class="st3" d="M50.3,7.9C47.5,3.7,37.9,0,25.5,0S3.5,3.7,0.6,7.9C0.2,8.5,0,9.2,0,9.9c0,4.9,10.3,9.2,23.5,9.6V23
	c0,1.4,1.1,2.5,2.5,2.5s2.5-1.1,2.5-2.5v3.5c0,1.7,1.3,3,3,3c1.7,0,3-1.3,3-3V27c0,1.1,0.9,2,2,2s2-0.9,2-2v-8.9
	C45.9,16.4,51,13.2,51,9.9C51,9.2,50.7,8.5,50.3,7.9z"/>
<g>
	<path class="st0" d="M23.5,23v-3.6C12.2,19.1,3,15.9,0.6,11.9l0,0c-0.4,0.6-0.6,1.3-0.6,2c0,4.9,10.4,9.2,23.5,9.6
		C23.5,23.3,23.5,23.2,23.5,23z"/>
	<path class="st0" d="M50.3,11.9c-1.5,2.6-5.9,4.9-11.9,6.2v4c7.5-1.7,12.5-4.9,12.5-8.3C51,13.2,50.7,12.5,50.3,11.9L50.3,11.9
		L50.3,11.9z"/>
</g>
<path class="st0" d="M29.1,15.8c-0.6,0-1-0.4-1-1s0.4-1,1-1c9.3,0,16.2-2.8,16.2-5.3c0-0.6,0.4-1,1-1s1,0.4,1,1
	C47.2,13.2,37.9,15.8,29.1,15.8z"/>
<path class="st4" d="M15.5,13.5h-3c-1.1,0-2-0.9-2-2v-3c0-1.1,0.9-2,2-2h3c1.1,0,2,0.9,2,2v3C17.5,12.6,16.6,13.5,15.5,13.5z"/>
<path class="st0" d="M23.5,10h-3c-1.1,0-2-0.9-2-2V5c0-1.1,0.9-2,2-2h3c1.1,0,2,0.9,2,2v3C25.5,9.1,24.6,10,23.5,10z"/>
</svg>
