<?xml version="1.0" encoding="utf-8"?>
<!-- Generator: Adobe Illustrator 24.1.2, SVG Export Plug-In . SVG Version: 6.00 Build 0)  -->
<svg version="1.1" id="Layer_1" xmlns="http://www.w3.org/2000/svg" xmlns:xlink="http://www.w3.org/1999/xlink" x="0px" y="0px"
	 viewBox="0 0 362.2 180.1" style="enable-background:new 0 0 362.2 180.1;" xml:space="preserve">
<style type="text/css">
	.st0{fill:#E6EAEE;}
	.st1{fill:#F8F4F0;}
</style>
<path class="st0" d="M350.5,118.3c0,30.4-76.8,47.8-169.4,47.8S11.8,148.7,11.8,118.3S88.6,56,181.1,56S350.5,87.9,350.5,118.3z"/>
<ellipse class="st1" cx="181.1" cy="78.6" rx="181.1" ry="78.6"/>
<path class="st0" d="M309.2,80c0,30.4-58.1,47.8-128.1,47.8S53,110.4,53,80s58.1-62.3,128.1-62.3S309.2,49.6,309.2,80z"/>
<path class="st1" d="M300.2,83c0,28.6-53.3,51.7-119.1,51.7S62,111.5,62,83c0-28.6,53.3-51.7,119.1-51.7S300.2,54.5,300.2,83z"/>
</svg>
