<?xml version="1.0" encoding="utf-8"?>
<!-- Generator: Adobe Illustrator 24.1.2, SVG Export Plug-In . SVG Version: 6.00 Build 0)  -->
<svg version="1.1" id="Layer_1" xmlns="http://www.w3.org/2000/svg" xmlns:xlink="http://www.w3.org/1999/xlink" x="0px" y="0px"
	 viewBox="0 0 222.82 243.1" style="enable-background:new 0 0 222.82 243.1;" xml:space="preserve">
<style type="text/css">
	.st0{fill:#725245;}
	.st1{fill:#F7CEDD;}
	.st2{fill:#E8CAAA;}
	.st3{fill:#CAE0DA;}
	.st4{fill:#B1CBC4;}
	.st5{fill:#F9DFE9;}
	.st6{fill:#7E4E24;}
</style>
<g>
	<path class="st0" d="M118.31,0.3c2.7,0.2,5.5,0.5,8.2,0.9c3.1,0.5,6.3,1.1,9.3,1.8c6.2,1.5,12.2,3.5,18,5.9
		c14.1,5.9,26.8,14,37.8,24.6c5.7,5.5,10.2,12,14.5,18.6c4.3,6.7,8.1,13.7,10.6,21.3c1.6,4.8,2.6,9.7,1.9,14.8
		c-0.5,3.9-2.2,7.2-5.1,9.7c-0.5,0.5-0.8,1-0.9,1.6c-0.8,6.3-2.5,12.3-5.7,17.9c-1.3,2.2-2.4,4.6-3.3,7c-0.6,1.7-0.4,3.1,0.5,4.5
		c1.1,1.8,2.7,3.2,4.4,4.5c2.7,1.9,5.6,3.6,8.1,5.8c4.9,4.3,6.7,9.7,6.1,16c-1.1,11.4-10.6,19.9-21.1,21.9c-1.9,0.3-3.7,0.6-5.6,0.5
		c-0.8,0-1.2,0.2-1.5,0.9c-4.9,10.2-9.9,20.4-14.8,30.6c-4.1,8.5-8.3,17-12.4,25.5c-0.4,0.8-1.1,1.1-1.8,1.5
		c-3.6,1.8-7.4,2.8-11.3,3.6c-8,1.7-16.1,2.4-24.3,2.9c-8.2,0.5-16.4,0.6-24.6,0.4c-12.3-0.3-24.5-1-36.5-3.8
		c-3.2-0.8-6.4-1.7-9.4-3.2c-0.9-0.4-1.4-1.1-1.8-2c-7.7-15.9-15.4-31.8-23.2-47.7c-1.2-2.5-2.4-4.9-3.6-7.4c-0.5-1-1-1.3-2.1-1.4
		c-13.6-0.7-30.2-11.3-28.6-26.5c0.3-2.8,1.5-5.3,3.5-7.3c1.4-1.5,3.1-2.7,4.9-3.8c2.6-1.7,5.5-2.9,8.1-4.6c0.7-0.4,1.3-0.9,1.9-1.4
		c2.3-1.7,3.1-4.1,2.8-6.9c-0.4-3.5-1.3-6.9-2.4-10.3c-0.2-0.6-0.5-1.2-0.9-1.7c-4.8-5.1-6.8-11.3-7.7-18c-0.5-3.9-0.6-7.8-0.4-11.7
		c0.6-11.3,2.6-22.4,7.4-32.8c3.7-8.1,8.7-15.2,14.9-21.6c7.9-8.1,17-14.5,27.2-19.4c11.4-5.5,23.5-9,36.1-10.7
		c3.3-0.4,6.7-0.7,10-0.7c0.4,0,0.8,0,1.2,0c0.5,0,0.9,0,1.4,0c0.7-0.1,1.5,0.1,2.2-0.1C113.11,0,115.71,0.1,118.31,0.3z"/>
	<path class="st1" d="M113.91,4.6c13.3,0,27.5,3.7,41.2,9.8c12.2,5.5,23.2,12.7,32.8,21.9c4.5,4.3,8.1,9.2,11.6,14.3
		c4.9,7.2,9.3,14.6,12.2,22.9c1.3,3.7,2.2,7.4,2.1,11.4c-0.1,6.8-4.5,11.5-11.3,11.9c-1.5,0.1-3,0-4.4,0c-4.6,0-8.2,1.8-10.9,5.5
		c-2.2,3-3.6,6.4-5.1,9.8s-3,6.9-5.4,9.8c-3.1,3.8-7.3,5.3-12.1,4.6c-2.7-0.4-4.7-2.1-6.5-4c-2.9-3.2-5.1-6.8-7.7-10.3
		c-1.8-2.4-3.7-4.7-6-6.6c-0.5-0.4-0.9-0.5-1.6-0.2c-5.3,2.4-8.5,6.8-10.9,11.8c-1.9,3.8-3.4,7.8-5.3,11.5
		c-4.4,8.4-15,11.3-22.9,8.6c-3.6-1.3-6.2-3.5-7.3-7.3c-0.7-2.2-1.4-4.4-2.1-6.6c-0.5-1.5-1.1-2.9-2-4.2c-1.6-2.1-3.9-2.9-6.5-2.1
		c-2.7,0.8-4.6,2.7-6.2,4.9c-1.1,1.6-2.1,3.3-3,5.1c-0.6,1.1-1.2,2.1-1.7,3.1c-3.7,6.8-11.4,7.6-17.1,4.1c-4.9-3-7.7-7.4-8.6-13
		c-0.5-3.3-1-6.6-2.1-9.7c-0.9-2.5-2.2-4.8-4.3-6.5c-2.4-1.9-5-1.8-7.2,0.4c-1.4,1.3-2.3,3-3.3,4.6c-0.7,1.1-1.3,2.1-2.1,3.1
		c-1.7,1.9-2.8,2.1-4.9,0.7c-3.3-2.4-5.9-5.4-7.4-9.2c-1.8-4.6-2.5-9.3-2.6-14.2c-0.1-11.8,1.5-23.3,6.1-34.3
		c5.5-12.9,14.3-23.1,25.5-31.3c12.9-9.4,27.4-15,42.9-18C97.31,5.4,104.81,4.7,113.91,4.6z"/>
	<path class="st2" d="M82.41,127.2c1.2-2.1,2.3-4.4,3.6-6.5c1.9,1.6,2.3,3.6,3.2,6c0.4,1.3,0.8,2.5,1.2,3.8
		c1.9,6.3,6.4,9.7,12.6,11.2c10,2.4,22.5-1.4,28-13.8c1.6-3.5,3-7.1,4.8-10.5c1.3-2.5,2.8-4.7,5-6.5c0.9-0.7,1.3-0.6,2,0.2
		c2.1,2.5,3.9,5.2,5.8,7.9c2.1,3,4.3,5.8,7.1,8.3c6.3,5.5,16.2,3.9,21.3-0.6c3.2-2.8,5.3-6.4,7-10.2c1.6-3.4,2.9-7,4.8-10.3
		c0.6-1.1,1.3-2.1,2.2-3c1.3-1.4,3-2.1,4.9-2.2c3.2-0.1,6.4,0.2,9.5-0.7c0.7-0.2,0.5,0.3,0.5,0.7c-0.7,4.3-2.1,8.2-4.2,12
		c-1.5,2.6-2.7,5.3-3.8,8.1c-1.4,3.4-0.9,6.5,1,9.6c1.7,2.6,4.1,4.6,6.6,6.3c1.6,1.1,3.2,2.2,4.9,3.3c6.4,4.3,7.6,10.8,5.3,17.2
		c-2.8,7.8-8.8,12.1-16.7,13.5c-7.9,1.4-14.7-1.1-20.2-6.9c-1.6-1.7-1.6-1.7-3.1,0.1c-3.4,4.2-7.8,6.7-13.2,7.7
		c-5.6,1-10.4-0.4-14.6-4.3c-1.7-1.6-3.4-3-5.1-4.5c-1.7-1.4-3.6-2.4-5.7-3.3c-0.9-0.3-1.3-0.2-1.7,0.6c-2,3.5-4.4,6.8-7.5,9.5
		c-6,5.3-13.1,7.1-21,6.3c-6.3-0.6-10.2-4.4-13.2-9.5c-0.2-0.3-0.3-0.5-0.7-0.6c-1.2-0.4-2.3-0.8-3.5-1.2c-0.3-0.1-0.6-0.4-0.9,0.2
		c-1.6,3.4-4.6,5.2-7.9,6.6c-7.3,3.1-14.6,2.6-21.8-0.2c-2.9-1.1-5.7-2.4-8.3-4.3c-1.7-1.3-3.1-2.9-3.8-5c-0.4-1.3-1-2.6-1.5-4.1
		c-0.8,1.4-1.5,2.5-2.1,3.8c-4.3,8.9-13.9,10.9-21.1,8.8c-6.9-2-12.7-5.8-16.4-12.2c-1-1.7-1.6-3.6-1.7-5.7c-0.1-3.4,1.2-6,3.9-8.1
		c2.5-1.9,5.3-3.2,8-4.7s5.3-3.3,7.3-5.7c2.1-2.6,2.6-5.5,2.3-8.7c-0.2-2-0.5-4-1-5.9c-0.2-0.7-0.2-1,0.7-0.9
		c3.2,0.5,5.6-0.9,7.5-3.3c1.7-2,2.8-4.4,4.3-6.5c0.9-1.3,1.1-1.3,2.1-0.1c1.9,2.3,2.5,5.1,3,7.8c0.8,4,1.1,8.1,3.1,11.8
		c4.4,8.1,13.3,12.7,22.4,11C75.81,137.9,79.21,132.9,82.41,127.2z"/>
	<path class="st3" d="M139.41,166.9c2,1,3.5,2.7,5.1,4.1c1.2,1.1,2.5,2.2,3.8,3.1c6.3,4.6,13.2,4.8,20.4,2.5
		c3.4-1.1,6.4-2.9,9.1-5.2c0.4,0.5,0.4,0.5,0.1,1.4c-1.5,3.8-3.1,7.6-4.6,11.5c-6.1,15.4-12.3,30.8-18.3,46.3
		c-0.1,0.4-0.5,0.8-0.2,1.1c0.3,0.3,0.7,0,1-0.1c2-0.2,3.1-1.3,4.1-3.1c5-10,10.2-19.9,15.3-29.9c3.7-7.2,7.4-14.5,11.2-21.6
		c0.3-0.5,0.4-1.2,1.2-1.2c2.4,0.6,2.4,0.6,1.3,2.8c-8.4,17.3-16.8,34.6-25.2,51.9c-0.3,0.7-0.8,1.1-1.5,1.4
		c-4.7,1.9-9.5,2.9-14.5,3.6c-11,1.7-22.1,2.2-33.2,2.2c-8.2,0-16.4-0.1-24.5-0.8c-8.3-0.7-16.5-1.7-24.5-4.2
		c-2.1-0.7-3.5-1.7-4.5-3.8c-8.2-17.2-16.6-34.3-24.9-51.4c-0.5-1-0.4-1.4,0.7-1.6c0.7-0.1,1.3-0.4,1.9-0.7c0.6,0,0.7,0.5,0.9,0.9
		c1,2,2.1,4,3.1,6c4.3,8.5,8.6,16.9,13,25.3c3.8,7.4,7.6,14.9,11.5,22.3c0.4,0.8,0.9,1.3,1.8,1.5s1.8,0.5,2.7,0.6
		c0.2-0.4-0.1-0.7-0.2-1.1c-5.3-13.3-10.6-26.6-15.9-39.9c-2.3-5.9-4.7-11.7-7-17.6c-0.2-0.5-0.8-1.1,0.1-1.6
		c3.9,2.9,8.3,4.9,12.9,6.3c0.6,0.3,0.8,0.9,1,1.5c0.9,2.5,1.7,5.1,2.5,7.6c5,14.8,10,29.6,14.9,44.5c0.4,1.2,1,1.9,2.3,2
		c1.6,0.1,3.1,0.4,4.6,0.6c1.2,0.2,1.4,0,1.1-1.2c-1-4.1-1.9-8.2-2.8-12.3c-2.9-12.5-5.7-24.9-8.5-37.4c-0.2-0.9-0.5-1.9-0.6-2.8
		c-0.1-0.6-0.1-1.1,0.7-1.3c4-0.7,7.7-2,11.2-3.9c0.9,0,0.8,0.7,0.9,1.3c0.7,3.8,1.4,7.6,2.1,11.3c2.7,14.9,5.3,29.8,8,44.8
		c0.3,1.5,0.4,1.6,1.9,1.5h6.2c1.3,0.1,1.5,0,1.4-1.2c-0.2-3.8-0.1-7.6-0.4-11.4c0-0.3-0.1-0.6,0-0.8c0.1-4.1-0.2-8.2-0.3-12.2
		c-0.2-5.9-0.2-11.9-0.6-17.8c-0.2-2.5,0.1-5-0.2-7.5c0-0.4,0-0.7,0.3-1c2.8,0.2,5.6,0.4,8.5,0c1.2-0.2,2.4-0.3,3.5-0.5
		c0.7,1.5,0.4,3.1,0.3,4.7c-0.1,1.5-0.1,3-0.2,4.4c-0.1,6-0.4,12.1-0.5,18.1c-0.1,4.8-0.2,9.5-0.5,14.3c-0.2,3.3,0,6.6-0.4,9.9
		c-0.1,1.1,0.1,1.2,1.2,2h6.6c1.4-0.8,1.5-0.9,1.7-2.2c0.8-4.4,1.6-8.7,2.4-13.1c2.8-15.6,5.6-31.2,8.4-46.8
		c0.3-1.4,0.5-2.8,0.8-4.3C139.01,168,139.11,167.4,139.41,166.9z"/>
	<path class="st4" d="M139.41,167.3c-0.2,2.7-0.9,5.2-1.3,7.9c-1,6.1-2.2,12.3-3.3,18.4c-0.9,5.1-1.9,10.1-2.8,15.2
		c-1.2,7-2.5,14-3.7,21c-0.3,1.5-0.6,3-0.9,4.6c-0.1,0.6-0.4,0.7-0.9,0.7c-2.8,0-5.6,0-8.4,0c-0.7,0-0.9-0.3-0.8-1
		c0.3-5.3,0.4-10.5,0.5-15.8c0.1-1.6,0.1-3.2,0.2-4.8c0.1-3.5,0.2-6.9,0.3-10.4c0.1-4.9,0.3-9.9,0.5-14.8c0.1-2.1,0.2-4.2,0.2-6.3
		c3.2-0.9,6.4-2.1,9.2-3.8c4.1-2.6,7.5-6,10.3-9.9C138.81,167.9,138.91,167.3,139.41,167.3z"/>
	<path class="st4" d="M107.01,182.1c0.3,5.5,0.4,10.9,0.5,16.4c0.1,1.9,0.1,3.9,0.2,5.9c0.2,5.6,0.4,11.2,0.5,16.9
		c0.1,2.4,0,4.9,0.2,7.3c0.1,1.7,0.2,3.3,0.2,5c0,0.9-0.2,1.2-1.1,1.2c-2.6-0.1-5.2,0-7.8,0c-0.8,0-1.1-0.2-1.2-1.1
		c-1.3-7.6-2.7-15.2-4.1-22.9c-1.3-7.3-2.7-14.6-4-21.9c-0.8-4.2-1.5-8.4-2.2-12.7c-0.1-0.4-0.2-0.7-0.5-0.9
		c1.1-0.8,2.3-1.5,3.3-2.6c0.6-0.6,0.9-0.4,1.4,0.1c1.5,2,3.3,3.8,5.2,5.4c2.4,2,5.3,3,8.4,3.6
		C106.41,181.9,106.71,182,107.01,182.1z"/>
	<path class="st4" d="M76.61,179.2c-0.5,0.3-0.5,0.8-0.4,1.4c1.4,6.1,2.8,12.2,4.2,18.2c2.2,9.8,4.5,19.7,6.7,29.5
		c0.4,1.8,0.8,3.7,1.2,5.5c0.2,0.7-0.1,0.9-0.7,0.8c-2.4-0.3-4.7-0.6-7.1-1c-0.6-0.1-0.6-0.7-0.8-1.1c-2.5-7.6-5.1-15.1-7.6-22.7
		c-3.4-10.2-6.8-20.3-10.3-30.5c-0.2-0.5-0.4-0.9-0.6-1.3c3.4,0.9,6.7,1.6,10.2,1.6C73.31,179.6,74.91,179.4,76.61,179.2z"/>
	<path class="st4" d="M151.01,175.9c0.5,0.3-0.2,3.4-0.3,4c-1.4,6.1-2.8,12.2-4.2,18.2c-2.2,9.8-4.5,19.7-6.7,29.5
		c-0.4,1.8-0.8,3.7-1.2,5.5c-0.2,0.7,0.1,0.9,0.7,0.8c2.4-0.3,4.7-0.6,7.1-1c0.6-0.1,0.6-0.7,0.8-1.1c2.5-7.6,5.1-15.1,7.6-22.7
		c3.4-10.2,6.8-20.3,10.3-30.5c0.2-0.5,0.2-0.4,0.4-0.9c-3.4,0.9-5.3,0-8.8,0C154.91,177.7,152.61,176,151.01,175.9z"/>
	<path class="st4" d="M48.51,171.7c-0.5,0.4-0.1,0.8,0,1.1c4,10,7.9,19.9,11.9,29.9c3.8,9.7,7.7,19.3,11.5,29
		c0.1,0.1,0.1,0.3,0.2,0.6c-1.6-0.2-3.1-0.6-4.6-1.1c-0.2-0.1-0.4-0.4-0.5-0.6c-0.9-1.6-1.7-3.2-2.6-4.9c-2.7-5.4-5.5-10.8-8.2-16.1
		c-3.1-6-6.2-12-9.2-18c-2.7-5.2-5.3-10.4-8-15.5c-0.1-0.2-0.3-0.4-0.5-0.7c2.7-1.4,5.2-3,7.2-5.4c0.3-0.3,0.5-0.3,0.8,0
		C47.21,170.5,47.91,171.1,48.51,171.7z"/>
	<path class="st4" d="M187.51,175.8c-0.4,0.2-0.5,0.6-0.7,0.9c-3.4,6.7-6.9,13.4-10.3,20.2c-3.2,6.2-6.3,12.4-9.5,18.6
		c-2.5,4.9-5.1,9.8-7.6,14.7c-0.4,0.7-0.8,1.2-1.6,1.3c-0.8,0.1-1.6,0.4-2.4,0.6c-0.3,0.1-0.7,0.4-1,0.1s0-0.7,0.2-1
		c1-2.5,2-5,3-7.4c4.4-11.1,8.8-22.2,13.2-33.3c2.4-6,4.8-12,7.1-18c0.1-0.3,0.4-0.5,0-0.8c0.5-0.8,0.9-0.8,1.7-0.2
		C181.91,173.3,184.61,174.6,187.51,175.8z"/>
	<path class="st5" d="M47.11,49.7c0,0.6-0.2,1.1-0.4,1.6c-2.6,5.5-6.2,10.4-10.8,14.5c-2,1.8-4.3,3.3-7,4c-3,0.7-5.5-0.9-6.1-3.9
		c-0.8-4.4,0.4-8.5,1.9-12.6c1.8-5,4.6-9.5,7.9-13.6c2.4-2.9,5.1-5.5,8.4-7.4c1.4-0.8,2.8-1.3,4.4-1.3c2.2,0,3.9,1.2,4.5,3.4
		c0.2,0.8,0.7,1.7,0.3,2.6c-0.3,0.3-0.6,0.3-1,0.3c-2.8,0.3-4.1,2.1-3.6,4.8c0.4,1.9,0.9,3.8,1.4,5.7
		C47.21,48.5,47.51,49.1,47.11,49.7z"/>
	<path class="st5" d="M25.71,88.4c-3.6,0-6.3-2.8-6.3-6.5c0-3.6,2.8-6.4,6.4-6.4c3.6,0,6.3,2.9,6.3,6.6
		C32.11,85.7,29.01,88.7,25.71,88.4z"/>
	<path class="st6" d="M105.61,90.5c-3.3,0.2-5.6-2.5-4.6-5.4c0.6-1.6,1.7-2.5,3.4-2.6c3.1-0.2,6.1-0.4,9.2-0.5
		c2.6-0.1,4.4,1.6,4.5,3.9c0.1,2.4-1.6,4.1-4.2,4.2C111.11,90.2,108.41,90.4,105.61,90.5z"/>
	<path class="st6" d="M66.41,32.5c-2.4,0-4.1-1.5-4.4-3.7c-0.3-1.9,1.1-3.9,3.2-4.3c3.3-0.5,6.6-1,9.8-1.4c2.1-0.2,3.9,1.4,4.3,3.5
		c0.3,1.9-1,4-3.1,4.4c-2.7,0.5-5.4,0.8-8.1,1.2C67.51,32.4,66.91,32.5,66.41,32.5z"/>
	<path class="st6" d="M56.01,76.7c0,1.4-0.5,2.4-1.6,3.2c-2.5,1.9-5,3.7-7.5,5.6c-1.9,1.3-4.4,0.9-5.8-0.9c-1.3-1.8-0.9-4.2,0.9-5.6
		c2.4-1.8,4.8-3.6,7.2-5.3c1.4-1,3-1.2,4.5-0.4C55.21,74,55.91,75.2,56.01,76.7z"/>
	<path class="st6" d="M96.11,50.5c2.8,0,4.5,1.5,4.7,3.6c0.2,2.2-1.1,4-3.3,4.4c-3.2,0.5-6.4,0.9-9.6,1.3c-2.1,0.2-4-1.3-4.3-3.3
		c-0.3-2.1,0.9-4.1,3-4.5C89.91,51.3,93.31,50.9,96.11,50.5z"/>
	<path class="st6" d="M181.91,56.8c1.7,0,3.3,1.1,3.8,2.6c0.6,1.6,0.2,3.4-1.2,4.5c-2.5,1.9-5,3.8-7.6,5.6c-1.9,1.3-4.5,0.8-5.7-1
		c-1.3-1.8-0.9-4.2,1-5.6c2.4-1.8,4.7-3.5,7.1-5.3C180.01,57.1,180.91,56.7,181.91,56.8z"/>
	<path class="st6" d="M152.01,66.6c-0.1,1.5-0.8,2.7-2.2,3.4c-1.6,0.8-3.1,0.7-4.5-0.5c-2.4-2-4.7-4.1-7-6.1
		c-1.7-1.5-1.8-3.8-0.5-5.5s3.9-2.1,5.6-0.8c2.6,2.1,5.1,4.4,7.6,6.6C151.71,64.5,152.01,65.5,152.01,66.6z"/>
	<path class="st6" d="M99.11,28.4c0-1.4,0.6-2.5,1.7-3.3c2.4-1.8,4.8-3.6,7.2-5.3c1.9-1.4,4.5-1.1,5.9,0.7c1.4,1.9,1,4.3-1,5.8
		c-2.4,1.8-4.8,3.6-7.2,5.3c-1.4,1-2.9,1.1-4.4,0.3C99.81,31.2,99.11,30,99.11,28.4z"/>
	<path class="st6" d="M157.71,37.1c-2.6,0-4.4-1.5-4.6-3.5c-0.2-2.4,1.1-4.2,3.5-4.5c3.1-0.5,6.2-0.9,9.4-1.3
		c2.1-0.3,4.1,1.3,4.4,3.3c0.3,2.1-1,4.2-3.1,4.6C163.91,36.3,160.61,36.7,157.71,37.1z"/>
	<path class="st6" d="M47.11,49.7c-0.5-2.2-1-4.4-1.7-6.6c-1.3-4,1.4-6.5,4.7-6.1c1.9,0.6,2.9,1.9,3.3,3.9c0.5,2.4,1.2,4.8,1.8,7.2
		c0.7,2.9-0.3,4.9-2.9,5.6c-1.9,0.5-4.7-0.7-5.1-3.6C47.21,50,47.11,49.9,47.11,49.7z"/>
</g>
</svg>
