<svg id="Capa_1" data-name="Capa 1" xmlns="http://www.w3.org/2000/svg" viewBox="0 0 51.92 53.44"><path d="M8.7,20.4C5.2,17,4.8,11.8,7.8,8.9L8.7,8c3-2.9,8.3-2.5,11.9.9a7.92,7.92,0,0,1,0,11.5A8.67,8.67,0,0,1,8.7,20.4Z" transform="translate(-1.68 -1.01)" style="fill:#f75b57"/><path d="M13,11.8a4.23,4.23,0,0,1-3-1.2,1,1,0,1,1,1.4-1.4,2.43,2.43,0,0,0,3.2,0A1,1,0,1,1,16,10.6,4.23,4.23,0,0,1,13,11.8Z" transform="translate(-1.68 -1.01)" style="fill:#f98282"/><path d="M6.8,33.9l4.5,10.7c3,5.3,5.4,6.7,11.2,8.8,3.8,1.4,11,1.4,14.7,0,5.7-2.1,8.2-3.5,11.1-8.7l4.6-10.8c-2.5-2.4-6.7.3-9.2,2.7-2.5-2.4-6.6-.7-9.2,1.7a6.78,6.78,0,0,0-9.2,0c-2.6-2.4-6.7-4.2-9.3-1.7C13.6,34.1,9.4,31.4,6.8,33.9Z" transform="translate(-1.68 -1.01)" style="fill:#a46f3e"/><path d="M19.7,48.5a1,1,0,0,1-.9-.6L16,42.2a1,1,0,0,1,1.8-.8l2.8,5.7a1,1,0,0,1-.5,1.3C20,48.4,19.9,48.5,19.7,48.5Z" transform="translate(-1.68 -1.01)" style="fill:#c18b5f"/><path d="M40,48.5a.6.6,0,0,1-.4-.1,1,1,0,0,1-.5-1.3l2.8-5.7a1,1,0,1,1,1.8.8l-2.8,5.7A.87.87,0,0,1,40,48.5Z" transform="translate(-1.68 -1.01)" style="fill:#c18b5f"/><path d="M33.6,50.5h-.2a1,1,0,0,1-.8-1.1l.9-5.7a1,1,0,0,1,1.9.3l-.9,5.7A.88.88,0,0,1,33.6,50.5Z" transform="translate(-1.68 -1.01)" style="fill:#c18b5f"/><path d="M26.2,50.5a1,1,0,0,1-1-.8L24.3,44a1,1,0,0,1,.8-1.1.94.94,0,0,1,1.1.8l.9,5.7a1,1,0,0,1-.8,1.1Z" transform="translate(-1.68 -1.01)" style="fill:#c18b5f"/><path d="M49.8,25.4a7.72,7.72,0,0,0,.2-1.5c0-2.7-2.2-5.1-5.8-6.9,0,0,.1-15.5-13-14.2,0,0,4.2,6.6-1.7,6.7a30.15,30.15,0,0,0-7.8,1,7.93,7.93,0,0,1-1.3,9.9,8.61,8.61,0,0,1-10.6,1A4.84,4.84,0,0,0,9.1,24a7.72,7.72,0,0,0,.2,1.5c-2.4,1.7-3.7,3.7-3.7,5.9a6.1,6.1,0,0,0,1.8,4.2L6.7,34c2.6-2.4,6.7.3,9.3,2.7,2.6-2.4,6.7-.7,9.3,1.7a6.78,6.78,0,0,1,9.2,0c2.5-2.4,6.6-4.2,9.2-1.7,2.5-2.4,6.6-5.1,9.2-2.7a5.94,5.94,0,0,0,.7-2.6C53.6,29.1,52.2,27.1,49.8,25.4Z" transform="translate(-1.68 -1.01)" style="fill:#ffee7f"/><path d="M12.7,8.9a1.06,1.06,0,0,1-1-.9A6.12,6.12,0,0,0,9.5,4.2C8,3.1,5.7,2.7,2.9,3.1a1,1,0,0,1-1.2-.8,1,1,0,0,1,.9-1.1c3.4-.5,6.2,0,8.2,1.5a7.79,7.79,0,0,1,2.9,5.1,1,1,0,0,1-1,1.1Z" transform="translate(-1.68 -1.01)" style="fill:#6a3311"/><path d="M30,20.5a.94.94,0,0,1-1-1,1,1,0,0,1,1-1A39.14,39.14,0,0,0,41.25,17a.94.94,0,1,1,.5,1.8A39.07,39.07,0,0,1,30,20.5Z" transform="translate(-1.68 -1.01)" style="fill:#fffb00"/><path d="M15.1,29.1a.37.37,0,0,1-.3-.1,18.25,18.25,0,0,1-3.2-1.4.88.88,0,0,1-.4-1.3,1,1,0,0,1,1.4-.4,14.76,14.76,0,0,0,2.9,1.2.93.93,0,0,1,.6,1.2C15.8,28.9,15.5,29.1,15.1,29.1Z" transform="translate(-1.68 -1.01)" style="fill:#fffb00"/><path d="M29.26,31.4a41.67,41.67,0,0,1-6.1-.4.85.85,0,0,1-.8-1,1,1,0,0,1,1.1-.8,45.35,45.35,0,0,0,12.2-.1,1,1,0,1,1,.2,1.9A47.76,47.76,0,0,1,29.26,31.4Z" transform="translate(-1.68 -1.01)" style="fill:#fffb00"/><path d="M41.75,29.9a1.2,1.2,0,0,1-1-.7,1.09,1.09,0,0,1,.7-1.2A25.24,25.24,0,0,0,47,26a1.11,1.11,0,0,1,1.4.4.88.88,0,0,1-.4,1.3,29,29,0,0,1-5.9,2.2Z" transform="translate(-1.68 -1.01)" style="fill:#fffb00"/></svg>