<svg id="Capa_1" data-name="Capa 1" xmlns="http://www.w3.org/2000/svg" viewBox="0 0 46.73 47.66"><ellipse cx="25.88" cy="44.9" rx="11" ry="2.3" style="fill:#dae7ef"/><path d="M28.41,49.53c-4,0-11.5-.57-11.5-2.76S24.44,44,28.41,44s11.5.58,11.5,2.76S32.39,49.53,28.41,49.53Zm0-4.6c-6.79,0-10.5,1.22-10.5,1.84s3.71,1.84,10.5,1.84,10.5-1.21,10.5-1.84S35.21,44.93,28.41,44.93Z" transform="translate(-2.54 -1.87)" style="fill:#bbd7ea"/><line x1="25.87" y1="30.77" x2="25.87" y2="44.57" style="fill:none"/><path d="M28.41,47.36a1,1,0,0,1-1-.92V32.64a1,1,0,0,1,2,0v13.8A1,1,0,0,1,28.41,47.36Z" transform="translate(-2.54 -1.87)" style="fill:#bbd7ea"/><path d="M9.41,10.44c0,1.33,2.85,2.36,7.25,3a6.37,6.37,0,0,0,.75-3c0-3.78-3.33-6.84-7.43-6.84S2.54,6.66,2.54,10.44,5.87,17.28,10,17.28a8,8,0,0,0,3.1-.63C10.92,13.82,9.41,11.47,9.41,10.44Z" transform="translate(-2.54 -1.87)" style="fill:#a4e869"/><path d="M27.91,5.84A57.48,57.48,0,0,0,16.35,6.93a6.34,6.34,0,0,1,.31,6.5c-4.1-.59-6.85-1.52-7.21-2.73a.7.7,0,0,0,0,.14.61.61,0,0,0,0,.11,3.63,3.63,0,0,0,.16.46l0,0c.08.19.18.39.29.61l.07.13c.11.2.23.42.37.64l0,.05c.15.26.32.52.5.8l.06.09c.18.27.37.55.58.84v0c.45.63.94,1.31,1.48,2h0C16.83,21.57,22.55,28,25.84,31.57a3.47,3.47,0,0,0,5.08-.06c4.94-5.69,15.5-18.17,15.5-21.07C46.41,8.15,38.13,5.84,27.91,5.84Z" transform="translate(-2.54 -1.87)" style="fill:#dae7ef"/><path d="M28.35,33.1a3.9,3.9,0,0,1-2.89-1.24c-3.15-3.44-9-10-12.79-14.94-.54-.72-1-1.4-1.49-2l-.6-.88-.06-.09L10,13.11,9.6,12.4l-.07-.14c-.12-.23-.22-.44-.31-.64s-.15-.39-.2-.55l0-.13a.68.68,0,0,1,0-.14.5.5,0,0,1,1-.22c.1.34.86,1.5,6.42,2.34a5.82,5.82,0,0,0,.55-2.48,6,6,0,0,0-1-3.27.45.45,0,0,1,0-.42.47.47,0,0,1,.35-.27,59,59,0,0,1,11.67-1.1c9.18,0,19,2,19,5.06S37.13,25.09,31.31,31.8a3.87,3.87,0,0,1-2.91,1.3ZM11.44,13.53c.18.27.36.55.56.83.46.66.95,1.33,1.49,2,3.77,4.95,9.6,11.45,12.73,14.88a2.94,2.94,0,0,0,2.17.91,2.86,2.86,0,0,0,2.13-1c9.64-11.08,15.39-18.85,15.39-20.78,0-1.65-7.17-4.14-18-4.14a58.43,58.43,0,0,0-10.8,1,6.76,6.76,0,0,1,0,6.38.52.52,0,0,1-.53.25,22.18,22.18,0,0,1-5.83-1.45l.1.18c.18.3.35.56.53.83l-.37.33Z" transform="translate(-2.54 -1.87)" style="fill:#bbd7ea"/><path d="M40.11,20.46c0,1.07-5.76,1.94-11.7,1.94s-12.29-.87-12.29-1.94,6.36-1.74,12.29-1.74S40.11,19.39,40.11,20.46Z" transform="translate(-2.54 -1.87)" style="fill:#f9ea80"/><path d="M28.36,22.4c-5.12,0-10.54-.65-11.95-1.51,3.28,3.94,7,8.05,9.37,10.68a3.47,3.47,0,0,0,5.08-.06c2.28-2.62,5.75-6.7,8.84-10.61C38.38,21.76,33.44,22.4,28.36,22.4Z" transform="translate(-2.54 -1.87)" style="fill:#f2e69c"/><path d="M39.34,13.41c1-.15,1.95-.32,2.78-.51l3-4.07A11.36,11.36,0,0,0,43.28,8Z" transform="translate(-2.54 -1.87)" style="fill:#fbd490"/><path d="M39.34,13.41,27.81,29.24a.88.88,0,0,0,.27,1.28,1.12,1.12,0,0,0,.56.15,1,1,0,0,0,.83-.41L42.11,12.9C41.29,13.09,40.35,13.26,39.34,13.41Z" transform="translate(-2.54 -1.87)" style="fill:#b0d9ea"/><path d="M27.91,5.84A57.48,57.48,0,0,0,16.35,6.93a6.34,6.34,0,0,1,.31,6.5,83.06,83.06,0,0,0,11.25.69c10.22,0,18.5-1.4,18.5-3.68S38.13,5.84,27.91,5.84Z" transform="translate(-2.54 -1.87)" style="fill:#dae7ef"/><path d="M27.91,14.58a81.92,81.92,0,0,1-11.33-.7.48.48,0,0,1-.36-.24.4.4,0,0,1,0-.41,5.9,5.9,0,0,0-.29-6.06.45.45,0,0,1,0-.42.47.47,0,0,1,.35-.27,59,59,0,0,1,11.67-1.1c9.18,0,19,2,19,5.06S36.68,14.58,27.91,14.58ZM17.38,13.06a84.21,84.21,0,0,0,10.54.6c11.26,0,18-1.64,18-3.22s-7.18-4.14-18-4.14a58.46,58.46,0,0,0-10.81,1,6.66,6.66,0,0,1,.27,5.81Z" transform="translate(-2.54 -1.87)" style="fill:#bbd7ea"/><path d="M48.83,2a1.06,1.06,0,0,0-1.39.25L43.18,8.13A4.07,4.07,0,0,1,45,8.94L49.1,3.3A.87.87,0,0,0,48.83,2Z" transform="translate(-2.54 -1.87)" style="fill:#fbd490"/><path d="M37.43,19.34Z" transform="translate(-2.54 -1.87)" style="fill:#f9d70b"/><path d="M33.87,20.89l-6.06,8.35a.88.88,0,0,0,.28,1.28,1.08,1.08,0,0,0,.55.15,1,1,0,0,0,.83-.41l7-9.63C35.66,20.73,34.79,20.82,33.87,20.89Z" transform="translate(-2.54 -1.87)" style="fill:#f9d70b"/><path d="M35.24,19Z" transform="translate(-2.54 -1.87)" style="fill:#f9d70b"/><path d="M42.53,12.32l2.94-4a10.8,10.8,0,0,0-1.81-.83l-3.94,5.44C40.79,12.72,41.73,12.53,42.53,12.32Z" transform="translate(-2.54 -1.87)" style="fill:#fbd490"/></svg>