<svg id="Capa_1" data-name="Capa 1" xmlns="http://www.w3.org/2000/svg" viewBox="0 0 51 28.06"><path d="M.6,15.1A3.48,3.48,0,0,0,0,17c0,4.81,11.41,9.14,25.48,9.14S51,21.78,51,17a3.38,3.38,0,0,0-.6-1.87Z" style="fill:#9f7400"/><path d="M50.35,7.43C47.49,3.48,37.91,0,25.48,0S3.46,3.48.6,7.43A3.54,3.54,0,0,0,0,9.3c0,4.58,10.34,8.7,23.48,9.1v3.35a2.5,2.5,0,0,0,5,0v3.31a3,3,0,1,0,6,0v.42a2,2,0,0,0,4,0V17.09C45.94,15.45,51,12.48,51,9.3A3.43,3.43,0,0,0,50.35,7.43Z" style="fill:#9f7400"/><path d="M23.48,21.75V18.4C12.2,18.07,3,15,.6,11.2h0A3.54,3.54,0,0,0,0,13.07c0,4.59,10.37,8.73,23.52,9.1A2,2,0,0,1,23.48,21.75Z" style="fill:#5f4b00"/><path d="M50.34,11.2c-1.53,2.43-5.91,4.58-11.86,5.89v3.78C45.94,19.22,51,16.26,51,13.07a3.38,3.38,0,0,0-.6-1.87Z" style="fill:#5f4b00"/></svg>