<?xml version="1.0" encoding="utf-8"?>
<!-- Generator: Adobe Illustrator 24.1.2, SVG Export Plug-In . SVG Version: 6.00 Build 0)  -->
<svg version="1.1" id="Capa_1" xmlns="http://www.w3.org/2000/svg" xmlns:xlink="http://www.w3.org/1999/xlink" x="0px" y="0px"
	 viewBox="0 0 51.5 38.6" style="enable-background:new 0 0 51.5 38.6;" xml:space="preserve">
<style type="text/css">
	.st0{fill:#FBD490;}
	.st1{fill:#D8B173;}
	.st2{fill:#231F20;}
	.st3{fill:#A46F3E;}
	.st4{fill:#F9D70B;}
</style>
<path class="st0" d="M0.6,26.7C0.2,27.3,0,28,0,28.7c0,4.9,11.4,9.2,25.5,9.2S51,33.6,51,28.7c0-0.7-0.2-1.2-0.6-1.9H0.6z"/>
<path class="st1" d="M0.6,23.9C0.2,24.4,0,25.1,0,25.8c0,4.9,11.4,9.3,25.5,9.3S51,30.7,51,25.8c0-0.7-0.2-1.2-0.6-1.9H0.6z"/>
<path class="st2" d="M31.5,30.1c-2.2,0-4-1.7-4-3.8c0-0.6,0.4-1,1-1s1,0.4,1,1c0,1.1,0.9,1.9,2,1.9c1.1,0,2-0.9,2-1.9
	c0-0.6,0.4-1,1-1s1,0.4,1,1C35.5,28.5,33.7,30.1,31.5,30.1z"/>
<path class="st0" d="M0.6,20C0.2,20.6,0,21.3,0,21.9c0,4.9,11.4,9.3,25.5,9.3S51,26.8,51,21.9c0-0.7-0.2-1.2-0.6-1.9H0.6z"/>
<path class="st0" d="M0.6,20C0.2,20.6,0,21.3,0,21.9c0,4.9,11.4,9.3,25.5,9.3S51,26.8,51,21.9c0-0.7-0.2-1.2-0.6-1.9H0.6z"/>
<path class="st1" d="M0.6,16.2C0.2,16.7,0,17.4,0,18.1c0,4.9,11.4,9.3,25.5,9.3S51,23,51,18.1c0-0.7-0.2-1.2-0.6-1.9H0.6z"/>
<g>
	<path class="st0" d="M24,22.9v-3.5c-11.3-0.3-20.5-3.4-22.9-7.2l0,0c-0.4,0.6-0.6,1.2-0.6,1.9c0,4.7,10.4,8.8,23.5,9.2
		C24,23.2,24,23.1,24,22.9z"/>
	<path class="st0" d="M49.9,12.2c-1.5,2.5-5.9,4.7-11.9,6V22c7.5-1.6,12.5-4.7,12.5-8C50.6,13.5,50.3,12.8,49.9,12.2L49.9,12.2
		L49.9,12.2z"/>
</g>
<path class="st3" d="M50.8,8.4C48,4.3,38.4,0.8,26,0.8S4,4.3,1.1,8.4c-0.4,0.6-0.6,1.2-0.6,1.9c0,4.7,10.3,8.8,23.5,9.2l0,3.2
	c0,1.2,1,2.4,2.3,2.5c1.5,0.1,2.7-1,2.7-2.4v3.3c0,1.4,1.1,2.8,2.6,2.9c1.9,0.2,3.4-1.1,3.4-2.9v0.4c0,0.8,0.5,1.6,1.3,1.9
	C37.7,29,39,28,39,26.7v-8.6c7.4-1.6,12.5-4.7,12.5-7.9C51.5,9.6,51.2,8.9,50.8,8.4z"/>
<path class="st0" d="M29.1,16c-0.6,0-1-0.4-1-1c0-0.6,0.4-1,1-1c9.3,0,16.2-2.7,16.2-5.1c0-0.6,0.4-1,1-1s1,0.4,1,1
	C47.2,13.5,37.9,16,29.1,16z"/>
<path class="st4" d="M16,14.2h-3c-1.1,0-2-0.9-2-1.9V9.4c0-1.1,0.9-1.9,2-1.9h3c1.1,0,2,0.9,2,1.9v2.9C18,13.4,17.1,14.2,16,14.2z"
	/>
<path class="st0" d="M24,10.4h-3c-1.1,0-2-0.9-2-1.9V5.6c0-1.1,0.9-1.9,2-1.9h3c1.1,0,2,0.9,2,1.9v2.9C26,9.5,25.1,10.4,24,10.4z"/>
</svg>
