<?xml version="1.0" encoding="utf-8"?>
<!-- Generator: Adobe Illustrator 24.1.2, SVG Export Plug-In . SVG Version: 6.00 Build 0)  -->
<svg version="1.1" id="Capa_1" xmlns="http://www.w3.org/2000/svg" xmlns:xlink="http://www.w3.org/1999/xlink" x="0px" y="0px"
	 viewBox="0 0 54.5 41" style="enable-background:new 0 0 54.5 41;" xml:space="preserve">
<style type="text/css">
	.st0{fill:#EEAF4B;}
	.st1{fill:#FBD490;}
	.st2{fill:#DC9628;}
	.st3{fill:#E2B266;}
</style>
<g>
	<path class="st0" d="M32.3,40c3.6,0,7-1.6,9.2-4.2c1.4-1.7,2.9-3.4,4.6-4.9l2.5-2.3h-0.1c3.6,0,6.1-2.6,6.1-5.8s-2.9-5.8-6.4-5.8
		c0-10.3-9.2-15.7-20.6-15.7s-21,5.5-21,15.7c-3.6,0-6.4,2.6-6.4,5.8c0,3.2,2.9,5.8,6.4,5.8L8.9,31c1.7,1.5,3.1,3.2,4.6,4.9
		c2.2,2.6,5.6,4.2,9.2,4.2H32.3z"/>
	<path class="st1" d="M6.4,28.7c-3.6,0-6.4-2.6-6.4-5.8s2.9-5.8,6.4-5.8c0-10.3,9.7-15.7,21-15.7s20.6,5.5,20.6,15.7
		c3.6,0,6.4,2.6,6.4,5.8s-2.5,5.8-6.1,5.8h0.1c-3.9,0-7-2.1-7-4.7c0,2.6-3.1,4.7-7,4.7s-7-2.1-7-4.7c0,2.6-3.1,4.7-7,4.7
		s-7-2.1-7-4.7C13.5,26.6,10.4,28.7,6.4,28.7"/>
	<path class="st2" d="M27.5,37.2c-5.1,0-6.3-0.3-8.9-1.3c-0.5-0.2-0.8-0.7-0.6-1.2c0.2-0.5,0.8-0.7,1.3-0.5
		c2.6,0.9,3.5,1.2,10.2,1.2c0.6,0,1,0.4,1,0.9c0,0.5-0.4,0.9-1,1C28.8,37.2,28.1,37.2,27.5,37.2z"/>
	<path class="st2" d="M16.4,33.6c-0.3,0-0.6-0.1-0.8-0.3c-0.5-0.6-1.1-1.2-1.5-1.9c-0.3-0.4-0.2-1,0.2-1.3c0.4-0.3,1.1-0.2,1.4,0.2
		c0.5,0.6,0.9,1.2,1.4,1.7c0.4,0.4,0.3,1-0.1,1.3C16.9,33.5,16.6,33.6,16.4,33.6z"/>
	<path class="st3" d="M30.5,14.6c0,2.1-1.3,3.8-3,3.8s-3-1.7-3-3.8s1.3-7.5,3-7.5S30.5,12.5,30.5,14.6z"/>
	<path class="st3" d="M41.3,14.3c0.6,1.4-0.1,3.1-1.6,3.7c-1.5,0.6-3.3-0.1-3.9-1.5s-1.1-5.7,0.4-6.3C37.7,9.6,40.6,12.8,41.3,14.3z
		"/>
	<path class="st3" d="M13.8,14.3c-0.6,1.4,0.1,3.1,1.6,3.7c1.5,0.6,3.3-0.1,3.9-1.5c0.6-1.4,1.1-5.7-0.4-6.3
		C17.3,9.6,14.4,12.8,13.8,14.3z"/>
</g>
</svg>
